<svg class="animated" id="freepik_stories-mobile-life" xmlns="http://www.w3.org/2000/svg" viewBox="0 0 500 500" version="1.1" xmlns:xlink="http://www.w3.org/1999/xlink" xmlns:svgjs="http://svgjs.com/svgjs"><g id="freepik--background-simple--inject-170" class="animable animator-hidden" style="transform-origin: 253.614px 225.395px;"><path d="M30.62,158.94S49.87,77.58,125.73,38s166.33-22.74,240-11.1,120.53,68,115.52,135.61-64.42,74-109.78,141.79-47.71,93-120.78,124.16-166.91-20.11-203-111S30.62,158.94,30.62,158.94Z" style="fill: rgb(84, 169, 138); transform-origin: 253.614px 225.395px;" id="el1nkvd1t7iwt" class="animable"></path><g id="elcikd789au9t"><path d="M30.62,158.94S49.87,77.58,125.73,38s166.33-22.74,240-11.1,120.53,68,115.52,135.61-64.42,74-109.78,141.79-47.71,93-120.78,124.16-166.91-20.11-203-111S30.62,158.94,30.62,158.94Z" style="fill: rgb(255, 255, 255); opacity: 0.8; transform-origin: 253.614px 225.395px;" class="animable"></path></g></g><g id="freepik--Graphics--inject-170" class="animable" style="transform-origin: 248.525px 174.935px;"><polyline points="89 199 244 220 130 100" style="fill: none; stroke: rgb(0, 0, 0); stroke-miterlimit: 10; stroke-dasharray: 2; transform-origin: 166.5px 160px;" id="elmwr3co31we" class="animable"></polyline><line x1="308" y1="85" x2="244" y2="220" style="fill: none; stroke: rgb(0, 0, 0); stroke-miterlimit: 10; stroke-dasharray: 2; transform-origin: 276px 152.5px;" id="elzcyf4721heo" class="animable"></line><line x1="245.14" y1="215.71" x2="375" y2="185" style="fill: none; stroke: rgb(0, 0, 0); stroke-miterlimit: 10; stroke-dasharray: 2; transform-origin: 310.07px 200.355px;" id="el5h7jkdz30p" class="animable"></line><rect x="42.12" y="172.38" width="83.71" height="55.09" style="fill: rgb(38, 50, 56); stroke: rgb(38, 50, 56); stroke-miterlimit: 10; transform-origin: 83.975px 199.925px;" id="elz9e2c28i9u" class="animable"></rect><rect x="58.57" y="172.38" width="50.8" height="55.09" style="fill: rgb(255, 255, 255); stroke: rgb(38, 50, 56); stroke-miterlimit: 10; transform-origin: 83.97px 199.925px;" id="elvoj2lbrwqip" class="animable"></rect><rect x="45.48" y="177.98" width="9.6" height="9.6" rx="2" style="fill: rgb(255, 255, 255); stroke: rgb(38, 50, 56); stroke-miterlimit: 10; transform-origin: 50.28px 182.78px;" id="elbpbyj314znf" class="animable"></rect><rect x="45.48" y="188.78" width="9.6" height="9.6" rx="2" style="fill: rgb(255, 255, 255); stroke: rgb(38, 50, 56); stroke-miterlimit: 10; transform-origin: 50.28px 193.58px;" id="elfxuhre8b61d" class="animable"></rect><rect x="45.48" y="199.57" width="9.6" height="9.6" rx="2" style="fill: rgb(255, 255, 255); stroke: rgb(38, 50, 56); stroke-miterlimit: 10; transform-origin: 50.28px 204.37px;" id="el8dv0nr4z89i" class="animable"></rect><rect x="45.48" y="210.37" width="9.6" height="9.6" rx="2" style="fill: rgb(255, 255, 255); stroke: rgb(38, 50, 56); stroke-miterlimit: 10; transform-origin: 50.28px 215.17px;" id="elvk9cfp8sw9j" class="animable"></rect><rect x="113.08" y="177.98" width="9.6" height="9.6" rx="2" style="fill: rgb(255, 255, 255); stroke: rgb(38, 50, 56); stroke-miterlimit: 10; transform-origin: 117.88px 182.78px;" id="eliibhna1k5n" class="animable"></rect><rect x="113.08" y="188.78" width="9.6" height="9.6" rx="2" style="fill: rgb(255, 255, 255); stroke: rgb(38, 50, 56); stroke-miterlimit: 10; transform-origin: 117.88px 193.58px;" id="el2uuhmlo2e3e" class="animable"></rect><rect x="113.08" y="199.57" width="9.6" height="9.6" rx="2" style="fill: rgb(255, 255, 255); stroke: rgb(38, 50, 56); stroke-miterlimit: 10; transform-origin: 117.88px 204.37px;" id="ellm0h1zhjke" class="animable"></rect><rect x="113.08" y="210.37" width="9.6" height="9.6" rx="2" style="fill: rgb(255, 255, 255); stroke: rgb(38, 50, 56); stroke-miterlimit: 10; transform-origin: 117.88px 215.17px;" id="elkjyk8u6en2l" class="animable"></rect><polygon points="102.4 199.58 71.25 181.59 71.25 217.57 102.4 199.58" style="fill: rgb(84, 169, 138); transform-origin: 86.825px 199.58px;" id="el5r0xfyayi7a" class="animable"></polygon><rect x="82.76" y="65.5" width="76.34" height="65.93" style="fill: rgb(255, 255, 255); stroke: rgb(38, 50, 56); stroke-miterlimit: 10; transform-origin: 120.93px 98.465px;" id="elqqmw46ek3j" class="animable"></rect><rect x="87.07" y="69.22" width="67.72" height="58.49" style="fill: rgb(38, 50, 56); stroke: rgb(38, 50, 56); stroke-miterlimit: 10; transform-origin: 120.93px 98.465px;" id="elrla0kftwho" class="animable"></rect><polygon points="154.79 115.09 141.87 99.39 128.32 104.93 109.85 89.54 87.07 102.06 87.07 127.71 154.79 127.71 154.79 115.09" style="fill: rgb(255, 255, 255); stroke: rgb(38, 50, 56); stroke-miterlimit: 10; transform-origin: 120.93px 108.625px;" id="elzbbufsk9d7" class="animable"></polygon><circle cx="132.63" cy="81.53" r="8.62" style="fill: rgb(255, 255, 255); stroke: rgb(38, 50, 56); stroke-miterlimit: 10; transform-origin: 132.63px 81.53px;" id="elojjsf8rqra7" class="animable"></circle><rect x="69.22" y="56.26" width="76.34" height="65.93" style="fill: rgb(255, 255, 255); stroke: rgb(38, 50, 56); stroke-miterlimit: 10; transform-origin: 107.39px 89.225px;" id="elu2vs6ic1xvj" class="animable"></rect><rect x="73.53" y="59.98" width="67.72" height="58.49" style="fill: rgb(38, 50, 56); stroke: rgb(38, 50, 56); stroke-miterlimit: 10; transform-origin: 107.39px 89.225px;" id="eltev2pbnff6g" class="animable"></rect><polygon points="141.25 105.85 128.32 90.15 114.78 95.69 96.31 80.3 73.53 92.83 73.53 118.47 141.25 118.47 141.25 105.85" style="fill: rgb(255, 255, 255); stroke: rgb(38, 50, 56); stroke-miterlimit: 10; transform-origin: 107.39px 99.385px;" id="elq9xhub2twh" class="animable"></polygon><circle cx="119.09" cy="72.3" r="8.62" style="fill: rgb(84, 169, 138); transform-origin: 119.09px 72.3px;" id="elz0x8n4ahzx" class="animable"></circle><rect x="277.89" y="30.14" width="79.56" height="75.26" style="fill: rgb(255, 255, 255); stroke: rgb(38, 50, 56); stroke-miterlimit: 10; transform-origin: 317.67px 67.77px;" id="elxp1f2h57ci" class="animable"></rect><path d="M357.45,43.42l-9,16.72L333,58.55c6.57-8,11.82-17.44,13.94-28.41h-4.08C340.56,41,335,50.21,328.13,58.05l-50.24-5.17v4l8.15.84-8.15,21.9V91.11l5.23-14,19.32,2.71c-2.85,1.9-5.52,3.62-7.89,5.13-9.11,5.82-14,12.44-16.66,18v2.5h3.29c2.28-5.13,6.74-11.52,15.52-17.13,3.39-2.17,7.38-4.72,11.61-7.68l27.06,3.79L324,105.4h4.55l11-20.35A11,11,0,0,1,348,96.18l-.39,9.22h4l.37-9.05A15,15,0,0,0,341.5,81.44l9.19-17,6.76.69v-4l-4.71-.48,4.71-8.73Zm-50.16,33-22.75-3.19,5.61-15.06,34.58,3.56A129,129,0,0,1,307.29,76.41Zm30.1,4.22L313,77.21a121.26,121.26,0,0,0,16.78-15L346.38,64Z" style="fill: rgb(38, 50, 56); transform-origin: 317.67px 67.795px;" id="el3ypwfbfq53j" class="animable"></path><path d="M351,105l-3-.26c.53-6,0-10.91-1.51-14.48a10.07,10.07,0,0,0-7.91-5.87L306.71,80a1.52,1.52,0,0,1-1.24-1.08,1.5,1.5,0,0,1,.49-1.56l19.81-16.52-30.93-3,.29-3,34.51,3.35a1.5,1.5,0,0,1,.81,2.65l-20,16.64,28.51,4a13.1,13.1,0,0,1,10.26,7.66C351,93.14,351.56,98.5,351,105Z" style="fill: rgb(84, 169, 138); transform-origin: 323.024px 79.92px;" id="elq6nbjw4vtwb" class="animable"></path><path d="M295,23.15A12.45,12.45,0,0,0,282.54,35.6c0,6.88,12.44,20.75,12.44,20.75s12.45-13.87,12.45-20.75A12.45,12.45,0,0,0,295,23.15Zm0,17.52a4.15,4.15,0,1,1,4.15-4.15A4.15,4.15,0,0,1,295,40.67Z" style="fill: rgb(84, 169, 138); transform-origin: 294.985px 39.75px;" id="el95bp5wrz2w" class="animable"></path><rect x="358" y="135.2" width="90" height="85.13" style="fill: none; stroke: rgb(38, 50, 56); stroke-linecap: round; stroke-miterlimit: 10; transform-origin: 403px 177.765px;" id="elqsprt1yqsdb" class="animable"></rect><rect x="363.22" y="140.14" width="79.56" height="75.26" style="fill: rgb(255, 255, 255); stroke: rgb(38, 50, 56); stroke-linecap: round; stroke-miterlimit: 10; transform-origin: 403px 177.77px;" id="elb6d6ad9gbiq" class="animable"></rect><path d="M430.39,184.82a2.58,2.58,0,0,0,2.55-2.06,14,14,0,0,0,.24-2.53,13.76,13.76,0,0,0-13-13.73,13.77,13.77,0,0,0-26.88,4.24c0,.37,0,.74.06,1.11h-.06a10.44,10.44,0,0,0-10.44,10.45v0a2.55,2.55,0,0,0,2.59,2.5Z" style="fill: rgb(84, 169, 138); transform-origin: 408.02px 170.881px;" id="el3ca6lmkc6pu" class="animable"></path><path d="M387,174a10.14,10.14,0,1,1,12.5-14.78" style="fill: none; stroke: rgb(38, 50, 56); stroke-linecap: round; stroke-miterlimit: 10; stroke-width: 2px; transform-origin: 390.15px 164.259px;" id="el3fvtxolthzg" class="animable"></path><line x1="390.9" y1="145.57" x2="390.9" y2="152.06" style="fill: none; stroke: rgb(38, 50, 56); stroke-linecap: round; stroke-miterlimit: 10; stroke-width: 2px; transform-origin: 390.9px 148.815px;" id="elr8k2vbnlt1m" class="animable"></line><line x1="372.25" y1="163.81" x2="378.33" y2="163.81" style="fill: none; stroke: rgb(38, 50, 56); stroke-linecap: round; stroke-miterlimit: 10; stroke-width: 2px; transform-origin: 375.29px 163.81px;" id="el91mqayv0rs5" class="animable"></line><line x1="381.57" y1="173.95" x2="377.11" y2="177.6" style="fill: none; stroke: rgb(38, 50, 56); stroke-linecap: round; stroke-miterlimit: 10; stroke-width: 2px; transform-origin: 379.34px 175.775px;" id="eldyxx5450y6c" class="animable"></line><line x1="377.52" y1="150.84" x2="381.98" y2="155.3" style="fill: none; stroke: rgb(38, 50, 56); stroke-linecap: round; stroke-miterlimit: 10; stroke-width: 2px; transform-origin: 379.75px 153.07px;" id="elxfrjjeqvzda" class="animable"></line><path d="M387.16,203.81a1,1,0,0,0,1-.81,5.36,5.36,0,0,0,.09-1,5.43,5.43,0,0,0-5.13-5.42,5.43,5.43,0,0,0-10.59,1.67,3.15,3.15,0,0,0,0,.44h0a4.11,4.11,0,0,0-4.11,4.12h0a1,1,0,0,0,1,1Z" style="fill: rgb(84, 169, 138); transform-origin: 378.335px 198.326px;" id="elv8vjq5t60vk" class="animable"></path><line x1="371.22" y1="204.46" x2="367.96" y2="209.26" style="fill: none; stroke: rgb(38, 50, 56); stroke-linecap: round; stroke-miterlimit: 10; transform-origin: 369.59px 206.86px;" id="elvzoh07qql8a" class="animable"></line><line x1="381.2" y1="204.46" x2="377.94" y2="209.26" style="fill: none; stroke: rgb(38, 50, 56); stroke-linecap: round; stroke-miterlimit: 10; transform-origin: 379.57px 206.86px;" id="el8vd1tmqf0xr" class="animable"></line><line x1="374.68" y1="207.53" x2="371.42" y2="212.33" style="fill: none; stroke: rgb(38, 50, 56); stroke-linecap: round; stroke-miterlimit: 10; transform-origin: 373.05px 209.93px;" id="elf67rd1epbgr" class="animable"></line><line x1="384.47" y1="207.53" x2="381.2" y2="212.33" style="fill: none; stroke: rgb(38, 50, 56); stroke-linecap: round; stroke-miterlimit: 10; transform-origin: 382.835px 209.93px;" id="elrk3dou04da" class="animable"></line><path d="M413.06,203.81a1,1,0,0,0,1-.81,4.62,4.62,0,0,0,.1-1,5.43,5.43,0,0,0-5.13-5.42,5.43,5.43,0,0,0-10.59,1.67c0,.15,0,.3,0,.44h0a4.12,4.12,0,0,0-4.12,4.12h0a1,1,0,0,0,1,1Z" style="fill: rgb(84, 169, 138); transform-origin: 404.24px 198.325px;" id="elqe1wxnx98u9" class="animable"></path><line x1="397.13" y1="204.46" x2="393.87" y2="209.26" style="fill: none; stroke: rgb(38, 50, 56); stroke-linecap: round; stroke-miterlimit: 10; transform-origin: 395.5px 206.86px;" id="el6waw0ahsvk7" class="animable"></line><line x1="407.11" y1="204.46" x2="403.85" y2="209.26" style="fill: none; stroke: rgb(38, 50, 56); stroke-linecap: round; stroke-miterlimit: 10; transform-origin: 405.48px 206.86px;" id="elw0pd0tsp9y" class="animable"></line><line x1="400.59" y1="207.53" x2="397.32" y2="212.33" style="fill: none; stroke: rgb(38, 50, 56); stroke-linecap: round; stroke-miterlimit: 10; transform-origin: 398.955px 209.93px;" id="ela60pqqiahc4" class="animable"></line><line x1="410.37" y1="207.53" x2="407.11" y2="212.33" style="fill: none; stroke: rgb(38, 50, 56); stroke-linecap: round; stroke-miterlimit: 10; transform-origin: 408.74px 209.93px;" id="elwdxy5hx79p" class="animable"></line><path d="M439,203.81a1,1,0,0,0,1-.81,5.36,5.36,0,0,0,.09-1,5.43,5.43,0,0,0-5.12-5.42,5.43,5.43,0,0,0-10.59,1.67c0,.15,0,.3,0,.44h0a4.11,4.11,0,0,0-4.12,4.12h0a1,1,0,0,0,1,1Z" style="fill: rgb(84, 169, 138); transform-origin: 430.175px 198.326px;" id="eltrk1f85od6l" class="animable"></path><line x1="423.04" y1="204.46" x2="419.78" y2="209.26" style="fill: none; stroke: rgb(38, 50, 56); stroke-linecap: round; stroke-miterlimit: 10; transform-origin: 421.41px 206.86px;" id="el8ksakghpono" class="animable"></line><line x1="433.02" y1="204.46" x2="429.75" y2="209.26" style="fill: none; stroke: rgb(38, 50, 56); stroke-linecap: round; stroke-miterlimit: 10; transform-origin: 431.385px 206.86px;" id="el5m6rp86bu2u" class="animable"></line><line x1="426.49" y1="207.53" x2="423.23" y2="212.33" style="fill: none; stroke: rgb(38, 50, 56); stroke-linecap: round; stroke-miterlimit: 10; transform-origin: 424.86px 209.93px;" id="el1e3h1iqhc2g" class="animable"></line><line x1="436.28" y1="207.53" x2="433.02" y2="212.33" style="fill: none; stroke: rgb(38, 50, 56); stroke-linecap: round; stroke-miterlimit: 10; transform-origin: 434.65px 209.93px;" id="elvvuk03xac5" class="animable"></line><path d="M411,109.23h0a21,21,0,0,1-21-21h0a21,21,0,0,1,21-21h0a21,21,0,0,1,21,21h0A21,21,0,0,1,411,109.23Z" style="fill: rgb(38, 50, 56); stroke: rgb(38, 50, 56); stroke-miterlimit: 10; transform-origin: 411px 88.23px;" id="elp4p0adfhx6m" class="animable"></path><path d="M423.05,87.76a11.29,11.29,0,0,0-22.56-.21c0,.17,0,.33,0,.5a11.16,11.16,0,0,0,1.61,5.78l-2,6,6.25-2a11.29,11.29,0,0,0,16.74-9.8Zm-11.29,9.7a9.46,9.46,0,0,1-5.22-1.56l-3.64,1.17,1.18-3.5a9.31,9.31,0,0,1-1.81-5.52c0-.31,0-.62.05-.92a9.49,9.49,0,0,1,18.9.18c0,.24,0,.49,0,.74A9.46,9.46,0,0,1,411.76,97.46Z" style="fill: rgb(84, 169, 138); fill-rule: evenodd; transform-origin: 411.595px 88.3291px;" id="elfq9ysjhce3n" class="animable"></path><path d="M416.94,90.31c-.28-.14-1.64-.81-1.89-.9s-.44-.13-.63.14a13.29,13.29,0,0,1-.88,1.07c-.16.19-.32.21-.6.07a7.26,7.26,0,0,1-2.22-1.36,8.05,8.05,0,0,1-1.54-1.9c-.16-.27,0-.42.12-.56s.28-.32.42-.48l.1-.13a3.34,3.34,0,0,0,.17-.33.48.48,0,0,0,0-.48c-.07-.14-.62-1.49-.85-2s-.46-.45-.63-.45-.34,0-.53,0a1.05,1.05,0,0,0-.74.34,3.11,3.11,0,0,0-1,2.3,3.67,3.67,0,0,0,.14.93,6,6,0,0,0,1,1.9,11.33,11.33,0,0,0,4.72,4.15c2.82,1.1,2.82.73,3.33.68a2.77,2.77,0,0,0,1.86-1.3,2.43,2.43,0,0,0,.17-1.31C417.4,90.51,417.21,90.44,416.94,90.31Z" style="fill: rgb(84, 169, 138); fill-rule: evenodd; transform-origin: 411.863px 88.1988px;" id="elxttzkrp6ra" class="animable"></path><path d="M210.66,82.07h0a21,21,0,0,1-21-21h0a21,21,0,0,1,21-21h0a21,21,0,0,1,21,21h0A21,21,0,0,1,210.66,82.07Z" style="fill: rgb(38, 50, 56); stroke: rgb(38, 50, 56); stroke-miterlimit: 10; transform-origin: 210.66px 61.07px;" id="elk1bwlph132s" class="animable"></path><path d="M207.34,73.78h5.1V61H216l.38-4.28h-3.94V54.29c0-1,.2-1.41,1.18-1.41h2.76V48.44h-3.53c-3.8,0-5.51,1.67-5.51,4.87v3.41h-2.65v4.33h2.65Z" style="fill: rgb(84, 169, 138); transform-origin: 210.535px 61.11px;" id="elo7fskkjtjmb" class="animable"></path><path d="M419.74,281.54h0a21,21,0,0,1-21-21h0a21,21,0,0,1,21-21h0a21,21,0,0,1,21,21h0A21,21,0,0,1,419.74,281.54Z" style="fill: rgb(38, 50, 56); stroke: rgb(38, 50, 56); stroke-miterlimit: 10; transform-origin: 419.74px 260.54px;" id="elmzprsoj3qp" class="animable"></path><path d="M419.74,251.16c3.07,0,3.43,0,4.64.06a6.31,6.31,0,0,1,2.14.4,3.72,3.72,0,0,1,1.32.86,3.56,3.56,0,0,1,.86,1.32,6.57,6.57,0,0,1,.39,2.13c.06,1.22.07,1.58.07,4.65s0,3.43-.07,4.64a6.51,6.51,0,0,1-.39,2.13,3.68,3.68,0,0,1-.86,1.33,3.72,3.72,0,0,1-1.32.86,6.65,6.65,0,0,1-2.14.39c-1.21.06-1.57.07-4.64.07s-3.43,0-4.65-.07a6.57,6.57,0,0,1-2.13-.39,3.56,3.56,0,0,1-1.32-.86,3.68,3.68,0,0,1-.86-1.33,6.44,6.44,0,0,1-.4-2.13c-.05-1.21-.06-1.57-.06-4.64s0-3.43.06-4.65a6.5,6.5,0,0,1,.4-2.13,3.82,3.82,0,0,1,2.18-2.18,6.24,6.24,0,0,1,2.13-.4c1.22-.05,1.58-.06,4.65-.06m0-2.07c-3.12,0-3.51,0-4.74.07a8.42,8.42,0,0,0-2.79.53,5.46,5.46,0,0,0-2,1.33,5.54,5.54,0,0,0-1.33,2,8.42,8.42,0,0,0-.53,2.79c-.06,1.23-.07,1.62-.07,4.74s0,3.51.07,4.74a8.35,8.35,0,0,0,.53,2.78,5.93,5.93,0,0,0,3.36,3.37A8.68,8.68,0,0,0,415,272c1.23.06,1.62.07,4.74.07s3.51,0,4.74-.07a8.74,8.74,0,0,0,2.79-.53,5.93,5.93,0,0,0,3.36-3.37,8.61,8.61,0,0,0,.53-2.78c.06-1.23.07-1.62.07-4.74s0-3.51-.07-4.74a8.68,8.68,0,0,0-.53-2.79,5.95,5.95,0,0,0-3.36-3.36,8.47,8.47,0,0,0-2.79-.53c-1.23-.06-1.62-.07-4.74-.07" style="fill: rgb(84, 169, 138); transform-origin: 419.755px 260.58px;" id="ellum0j0jrxmo" class="animable"></path><path d="M419.74,254.68a5.9,5.9,0,1,0,5.9,5.9,5.9,5.9,0,0,0-5.9-5.9m0,9.73a3.83,3.83,0,1,1,3.83-3.83,3.83,3.83,0,0,1-3.83,3.83" style="fill: rgb(84, 169, 138); transform-origin: 419.74px 260.58px;" id="el8f0d4de5ftt" class="animable"></path><path d="M427.25,254.44a1.38,1.38,0,1,1-1.38-1.38,1.38,1.38,0,0,1,1.38,1.38" style="fill: rgb(84, 169, 138); transform-origin: 425.87px 254.44px;" id="elzfx838vuli" class="animable"></path><path d="M87,299h0a21,21,0,0,1-21-21h0a21,21,0,0,1,21-21h0a21,21,0,0,1,21,21h0A21,21,0,0,1,87,299Z" style="fill: rgb(38, 50, 56); stroke: rgb(38, 50, 56); stroke-miterlimit: 10; transform-origin: 87px 278px;" id="eloxywuid8hil" class="animable"></path><path d="M75.83,285a13,13,0,0,0,20-11.58,9.22,9.22,0,0,0,2.29-2.37,9.08,9.08,0,0,1-2.63.72,4.57,4.57,0,0,0,2-2.53,9.24,9.24,0,0,1-2.91,1.11,4.59,4.59,0,0,0-7.81,4.18,13,13,0,0,1-9.44-4.79,4.59,4.59,0,0,0,1.42,6.12,4.58,4.58,0,0,1-2.08-.57,4.58,4.58,0,0,0,3.68,4.55,4.79,4.79,0,0,1-2.07.08,4.58,4.58,0,0,0,4.28,3.18A9.26,9.26,0,0,1,75.83,285Z" style="fill: rgb(84, 169, 138); transform-origin: 86.975px 277.984px;" id="eltahwpman0mf" class="animable"></path><g id="elijlmtttumxp"><g style="opacity: 0.3; transform-origin: 50.79px 139px;" class="animable"><line x1="50.79" y1="133.21" x2="50.79" y2="137.79" style="fill: none; stroke: rgb(0, 0, 0); stroke-linecap: round; stroke-miterlimit: 10; transform-origin: 50.79px 135.5px;" id="elgdmupterz7a" class="animable"></line><line x1="50.79" y1="140.21" x2="50.79" y2="144.79" style="fill: none; stroke: rgb(0, 0, 0); stroke-linecap: round; stroke-miterlimit: 10; transform-origin: 50.79px 142.5px;" id="el0w1atf0fves" class="animable"></line><line x1="45" y1="139" x2="49.58" y2="139" style="fill: none; stroke: rgb(0, 0, 0); stroke-linecap: round; stroke-miterlimit: 10; transform-origin: 47.29px 139px;" id="elop2b560gg4m" class="animable"></line><line x1="52" y1="139" x2="56.58" y2="139" style="fill: none; stroke: rgb(0, 0, 0); stroke-linecap: round; stroke-miterlimit: 10; transform-origin: 54.29px 139px;" id="elqlhde8xyq38" class="animable"></line></g></g><g id="elvcf5sz4hob"><g style="opacity: 0.3; transform-origin: 174.825px 51.545px;" class="animable"><line x1="174.82" y1="45.76" x2="174.82" y2="50.34" style="fill: none; stroke: rgb(0, 0, 0); stroke-linecap: round; stroke-miterlimit: 10; transform-origin: 174.82px 48.05px;" id="el2o203g1feat" class="animable"></line><line x1="174.82" y1="52.75" x2="174.82" y2="57.33" style="fill: none; stroke: rgb(0, 0, 0); stroke-linecap: round; stroke-miterlimit: 10; transform-origin: 174.82px 55.04px;" id="els0jb0j8c11c" class="animable"></line><line x1="169.04" y1="51.55" x2="173.62" y2="51.55" style="fill: none; stroke: rgb(0, 0, 0); stroke-linecap: round; stroke-miterlimit: 10; transform-origin: 171.33px 51.55px;" id="eldz00zr46zd7" class="animable"></line><line x1="176.03" y1="51.55" x2="180.61" y2="51.55" style="fill: none; stroke: rgb(0, 0, 0); stroke-linecap: round; stroke-miterlimit: 10; transform-origin: 178.32px 51.55px;" id="elqubwc06vb5b" class="animable"></line></g></g><g id="eln2rafr7qa8"><g style="opacity: 0.3; transform-origin: 340.31px 220.015px;" class="animable"><line x1="340.31" y1="214.23" x2="340.31" y2="218.81" style="fill: none; stroke: rgb(0, 0, 0); stroke-linecap: round; stroke-miterlimit: 10; transform-origin: 340.31px 216.52px;" id="eln5lnuj0uiug" class="animable"></line><line x1="340.31" y1="221.22" x2="340.31" y2="225.8" style="fill: none; stroke: rgb(0, 0, 0); stroke-linecap: round; stroke-miterlimit: 10; transform-origin: 340.31px 223.51px;" id="el5cqzkswdxtr" class="animable"></line><line x1="334.52" y1="220.01" x2="339.1" y2="220.01" style="fill: none; stroke: rgb(0, 0, 0); stroke-linecap: round; stroke-miterlimit: 10; transform-origin: 336.81px 220.01px;" id="eljerglwbpdoi" class="animable"></line><line x1="341.52" y1="220.01" x2="346.1" y2="220.01" style="fill: none; stroke: rgb(0, 0, 0); stroke-linecap: round; stroke-miterlimit: 10; transform-origin: 343.81px 220.01px;" id="eleh4lpeudrp" class="animable"></line></g></g><g id="eldijaajyicmb"><g style="opacity: 0.3; transform-origin: 449.145px 111.925px;" class="animable"><line x1="449.14" y1="106.14" x2="449.14" y2="110.72" style="fill: none; stroke: rgb(0, 0, 0); stroke-linecap: round; stroke-miterlimit: 10; transform-origin: 449.14px 108.43px;" id="el8rcz0jzf8zg" class="animable"></line><line x1="449.14" y1="113.13" x2="449.14" y2="117.71" style="fill: none; stroke: rgb(0, 0, 0); stroke-linecap: round; stroke-miterlimit: 10; transform-origin: 449.14px 115.42px;" id="elwx2w085rpz" class="animable"></line><line x1="443.36" y1="111.93" x2="447.94" y2="111.93" style="fill: none; stroke: rgb(0, 0, 0); stroke-linecap: round; stroke-miterlimit: 10; transform-origin: 445.65px 111.93px;" id="elxysstx2ow6" class="animable"></line><line x1="450.35" y1="111.93" x2="454.93" y2="111.93" style="fill: none; stroke: rgb(0, 0, 0); stroke-linecap: round; stroke-miterlimit: 10; transform-origin: 452.64px 111.93px;" id="ellirtlxwmkyb" class="animable"></line></g></g><g id="elkkbe4y6ivpm"><g style="opacity: 0.3; transform-origin: 141.28px 322.885px;" class="animable"><line x1="141.28" y1="317.1" x2="141.28" y2="321.68" style="fill: none; stroke: rgb(0, 0, 0); stroke-linecap: round; stroke-miterlimit: 10; transform-origin: 141.28px 319.39px;" id="el5a789aupim" class="animable"></line><line x1="141.28" y1="324.09" x2="141.28" y2="328.67" style="fill: none; stroke: rgb(0, 0, 0); stroke-linecap: round; stroke-miterlimit: 10; transform-origin: 141.28px 326.38px;" id="el9entf82u1qc" class="animable"></line><line x1="135.49" y1="322.88" x2="140.07" y2="322.88" style="fill: none; stroke: rgb(0, 0, 0); stroke-linecap: round; stroke-miterlimit: 10; transform-origin: 137.78px 322.88px;" id="elsdehckkacx7" class="animable"></line><line x1="142.49" y1="322.88" x2="147.07" y2="322.88" style="fill: none; stroke: rgb(0, 0, 0); stroke-linecap: round; stroke-miterlimit: 10; transform-origin: 144.78px 322.88px;" id="el3oxa0gsdqk4" class="animable"></line></g></g><g id="elzuwll74l0ba"><path d="M147,162.62a3,3,0,1,1-3-3A3,3,0,0,1,147,162.62Z" style="fill: none; stroke: rgb(0, 0, 0); stroke-linecap: round; stroke-miterlimit: 10; opacity: 0.3; transform-origin: 144px 162.62px;" class="animable"></path></g><g id="elocolbvt3wjm"><path d="M188,94.78a3,3,0,1,1-3-3A3,3,0,0,1,188,94.78Z" style="fill: none; stroke: rgb(0, 0, 0); stroke-linecap: round; stroke-miterlimit: 10; opacity: 0.3; transform-origin: 185px 94.78px;" class="animable"></path></g><g id="elznzhrwdx4kf"><path d="M383.26,249.09a3,3,0,1,1-3-3A3,3,0,0,1,383.26,249.09Z" style="fill: none; stroke: rgb(0, 0, 0); stroke-linecap: round; stroke-miterlimit: 10; opacity: 0.3; transform-origin: 380.26px 249.09px;" class="animable"></path></g><g id="el4i8gmqfb4jm"><path d="M156.65,270.7a3,3,0,1,1-3-3A3,3,0,0,1,156.65,270.7Z" style="fill: none; stroke: rgb(0, 0, 0); stroke-linecap: round; stroke-miterlimit: 10; opacity: 0.3; transform-origin: 153.65px 270.7px;" class="animable"></path></g><g id="elr8oeb13zgom"><path d="M126.09,325.87a3,3,0,1,1-3-3A3,3,0,0,1,126.09,325.87Z" style="fill: none; stroke: rgb(0, 0, 0); stroke-linecap: round; stroke-miterlimit: 10; opacity: 0.3; transform-origin: 123.09px 325.87px;" class="animable"></path></g><g id="el05peik73vgt9"><circle cx="429.48" cy="122.36" r="2.98" style="fill: none; stroke: rgb(0, 0, 0); stroke-linecap: round; stroke-miterlimit: 10; opacity: 0.3; transform-origin: 429.48px 122.36px;" class="animable"></circle></g><g id="elch9dtdgc5ha"><path d="M376.56,24a3,3,0,1,1-3-3A3,3,0,0,1,376.56,24Z" style="fill: none; stroke: rgb(0, 0, 0); stroke-linecap: round; stroke-miterlimit: 10; opacity: 0.3; transform-origin: 373.56px 24px;" class="animable"></path></g></g><g id="freepik--Character--inject-170" class="animable" style="transform-origin: 261.25px 281.813px;"><path d="M211.5,283.5s4,79,6.5,109.5,7.5,50.5,7.5,50.5-5,2-4.5,5l1,6S204,465,206,469a12.24,12.24,0,0,0,5.5,5.5H249s3-5,2.5-9.5-4.5-14-4.5-17,4-2.5,2.5-6.5-3.5-7-3.5-8.5-3.5-128.5-3.5-128.5H252l15,132a7.89,7.89,0,0,0-1.5,4c0,2,1.5,6,1.5,6v3l3.5,24.72h27A19.39,19.39,0,0,0,296,463.5a46.64,46.64,0,0,0-7.5-10L286,444V434s1-4,1.5-6.5,1-9,0-11-.5-86-.5-86l.5-45-46-14.5Z" style="fill: rgb(38, 50, 56); stroke: rgb(38, 50, 56); stroke-miterlimit: 10; transform-origin: 251.773px 372.75px;" id="el9m2jvuucdn7" class="animable"></path><path d="M242,144s-11.5,1-20,12.5-11,129-11,129h76.5S274,179,268,158.5,242,144,242,144Z" style="fill: rgb(255, 255, 255); stroke: rgb(38, 50, 56); stroke-miterlimit: 10; transform-origin: 249.25px 214.341px;" id="eluj8wjzzm2v" class="animable"></path><polygon points="264.5 184.71 271.83 284.86 277.12 284.86 264.5 184.71" style="fill: rgb(38, 50, 56); stroke: rgb(38, 50, 56); stroke-miterlimit: 10; transform-origin: 270.81px 234.785px;" id="el9xbbva232qw" class="animable"></polygon><ellipse cx="243.76" cy="151.56" rx="14.8" ry="13.37" style="fill: rgb(255, 255, 255); stroke: rgb(38, 50, 56); stroke-miterlimit: 10; transform-origin: 243.76px 151.56px;" id="ely3hiqkakv1" class="animable"></ellipse><path d="M223.75,136.19c1,5,2.2,10,3.52,12.87,3.33,7.34,14.33,8.67,19.67,6s7.33-9.33,8.66-16c.17-.82.32-1.79.45-2.87Z" style="fill: rgb(38, 50, 56); stroke: rgb(38, 50, 56); stroke-miterlimit: 10; transform-origin: 239.9px 146.26px;" id="el3fsz3qok8cj" class="animable"></path><path d="M224.33,186s-3.66,67.67-4.33,86.33-2.33,47-2.33,47a90.68,90.68,0,0,1-26-6.66c-13-5.67-14.67-7-14.67-7l16.67-81L169.33,222A199.86,199.86,0,0,1,188,183c12.33-19.67,22.33-27.33,29-31s11.33-6.33,11.33-6.33Z" style="fill: rgb(84, 169, 138); stroke: rgb(38, 50, 56); stroke-miterlimit: 10; transform-origin: 198.83px 232.5px;" id="elh0b95dsni2" class="animable"></path><path d="M257,143s3.33,22,6.33,39S277,317.67,277,317.67l31.67-1a439.65,439.65,0,0,0-4.34-76c-6-40-13.66-62-19-74.34S266.67,144.67,262.67,143,257,143,257,143Z" style="fill: rgb(84, 169, 138); stroke: rgb(38, 50, 56); stroke-miterlimit: 10; transform-origin: 282.932px 229.964px;" id="elfj21su6cor4" class="animable"></path><path d="M287.5,201s8.5,40.5,9.5,56.5,1.67,27.5,1.67,27.5S303,264,301,245.5,287.5,201,287.5,201Z" style="fill: rgb(38, 50, 56); stroke: rgb(38, 50, 56); stroke-miterlimit: 10; transform-origin: 294.514px 243px;" id="el60y05stndlc" class="animable"></path><path d="M225.83,147.09c-2,1.13-5.11,2.86-8.83,4.91a52.43,52.43,0,0,0-9.76,7c2.51,6.18,9.66,22.44,17.09,27l1.5-24.9Z" style="fill: rgb(38, 50, 56); stroke: rgb(38, 50, 56); stroke-miterlimit: 10; transform-origin: 216.535px 166.545px;" id="el2hkz7msuqd" class="animable"></path><polygon points="214.02 235.6 188.78 251.07 190.82 240.08 214.02 235.6" style="fill: rgb(38, 50, 56); stroke: rgb(38, 50, 56); stroke-miterlimit: 10; transform-origin: 201.4px 243.335px;" id="elqwt41dtbzc" class="animable"></polygon><line x1="206.12" y1="189.43" x2="207" y2="185" style="fill: rgb(255, 255, 255); stroke: rgb(38, 50, 56); stroke-miterlimit: 10; transform-origin: 206.56px 187.215px;" id="el4yq5cym1o3o" class="animable"></line><line x1="201.33" y1="213.67" x2="205.21" y2="194.06" style="fill: rgb(255, 255, 255); stroke: rgb(38, 50, 56); stroke-miterlimit: 10; transform-origin: 203.27px 203.865px;" id="el1zh8sowy2aa" class="animable"></line><path d="M264,186s1.67-14,7-25.33S279.67,144,274,135s-22.67-19.67-40.33-15.33-25,24-22.67,34S224.33,186,224.33,186s2.67-23.33,6-34.67,9.67-12,19.67-10,8.33,13.34,8.33,13.34Z" style="fill: rgb(255, 255, 255); stroke: rgb(38, 50, 56); stroke-miterlimit: 10; transform-origin: 243.765px 152.336px;" id="el2i44kjcn14x" class="animable"></path><rect x="215.72" y="115.87" width="9.86" height="19.47" rx="2.34" style="fill: rgb(38, 50, 56); stroke: rgb(38, 50, 56); stroke-miterlimit: 10; transform-origin: 220.65px 125.605px;" id="el4ogkw4npeab" class="animable"></rect><rect x="219.36" y="115.87" width="2.6" height="19.47" style="fill: rgb(255, 255, 255); stroke: rgb(38, 50, 56); stroke-miterlimit: 10; transform-origin: 220.66px 125.605px;" id="el276hsfaf4wp" class="animable"></rect><rect x="259.59" y="115.87" width="9.86" height="19.47" rx="2.34" style="fill: rgb(38, 50, 56); stroke: rgb(38, 50, 56); stroke-miterlimit: 10; transform-origin: 264.52px 125.605px;" id="elf1e580h3y6" class="animable"></rect><rect x="263.22" y="115.87" width="2.6" height="19.47" style="fill: rgb(255, 255, 255); stroke: rgb(38, 50, 56); stroke-miterlimit: 10; transform-origin: 264.52px 125.605px;" id="elqgh8mvdo4a" class="animable"></rect><path d="M224.33,117.67s2.67,20.66,6,28,14.34,8.66,19.67,6,7.33-9.34,8.67-16,1.66-23.34,1.66-23.34L228,113Z" style="fill: rgb(255, 255, 255); stroke: rgb(38, 50, 56); stroke-miterlimit: 10; transform-origin: 242.33px 132.633px;" id="elpuj197z8ijg" class="animable"></path><polyline points="245.83 126 246.61 138.19 240.38 138.45" style="fill: none; stroke: rgb(38, 50, 56); stroke-miterlimit: 10; transform-origin: 243.495px 132.225px;" id="elt96mfv67ps" class="animable"></polyline><path d="M237,140.27s6,3.38,14.27-.52" style="fill: none; stroke: rgb(38, 50, 56); stroke-miterlimit: 10; transform-origin: 244.135px 140.69px;" id="elhc19e40s5vk" class="animable"></path><path d="M225.32,96.47s-4.36,1.7-5.81,9.94,4.28,16,4.28,16l8.88-3.91L223,126.75a24.83,24.83,0,0,0,17.21,1.94,36.58,36.58,0,0,0,15.28-7.76l-1.22,5.82a7.84,7.84,0,0,0,7-4.61c2.43-4.85,5.34-14.31,1-23.52s-17.35-10.41-26.08-9a25.6,25.6,0,0,0-14,7.53Z" style="fill: rgb(38, 50, 56); stroke: rgb(38, 50, 56); stroke-miterlimit: 10; transform-origin: 241.888px 109.276px;" id="elvixt14w8srd" class="animable"></path><rect x="229.44" y="177.7" width="17.62" height="38" rx="1.93" style="fill: rgb(38, 50, 56); stroke: rgb(38, 50, 56); stroke-miterlimit: 10; transform-origin: 238.25px 196.7px;" id="ell7cstum0vgc" class="animable"></rect><path d="M243.2,198.8c-3,0-5.86.31-5.86.31a18.9,18.9,0,0,1,3.33-2.11,24.88,24.88,0,0,1,6.14-1.81,2.54,2.54,0,0,0,1.86-3.86c-1-2-9.79-1.11-15,2.67a21,21,0,0,0-4.08,4l-.26-8.49s-3.09,3.08-3.7,5.24c-.48,1.65-1.48,8.68-1.94,11.92-.64,1-1.21,1.91-1.69,2.62-2.67,4-10.73,3.81-10.73,3.81L211,229.33l15.33-11s8.34-.66,11.34-2,7.66-3,9-4.66.44-3.44,1-4.34a9,9,0,0,0,.66-3.33,8.32,8.32,0,0,0,1-4.67C249,197,246.2,198.8,243.2,198.8Z" style="fill: rgb(255, 255, 255); stroke: rgb(38, 50, 56); stroke-miterlimit: 10; transform-origin: 230.178px 209.42px;" id="elke0v4g2azn" class="animable"></path><path d="M248.33,204s-3,.66-6.67,1.28" style="fill: none; stroke: rgb(38, 50, 56); stroke-linecap: round; stroke-linejoin: round; transform-origin: 244.995px 204.64px;" id="el55l1p90eaz" class="animable"></path><path d="M247.67,207.33s-4.78,2.26-6.32,3.19" style="fill: none; stroke: rgb(38, 50, 56); stroke-linecap: round; stroke-linejoin: round; transform-origin: 244.51px 208.925px;" id="elboasjm5wvb6" class="animable"></path><path d="M183,216.33l33-5L217.33,235s-24.33,8.67-36,10.67S163,238,165,229.33s12-25.27,12-25.27" style="fill: rgb(84, 169, 138); stroke: rgb(38, 50, 56); stroke-miterlimit: 10; transform-origin: 190.989px 224.998px;" id="eltsgarh0u3bd" class="animable"></path><circle cx="369.75" cy="409.75" r="64.75" style="fill: rgb(38, 50, 56); stroke: rgb(38, 50, 56); stroke-miterlimit: 10; transform-origin: 369.75px 409.75px;" id="elut737sedkln" class="animable"></circle><circle cx="369.75" cy="409.75" r="55.25" style="fill: rgb(255, 255, 255); stroke: rgb(38, 50, 56); stroke-miterlimit: 10; transform-origin: 369.75px 409.75px;" id="elkbibzjbixj" class="animable"></circle><circle cx="369.75" cy="409.75" r="6.75" style="fill: rgb(255, 255, 255); stroke: rgb(38, 50, 56); stroke-miterlimit: 10; transform-origin: 369.75px 409.75px;" id="el53izcqmdtp" class="animable"></circle><circle cx="152.75" cy="409.75" r="64.75" style="fill: rgb(38, 50, 56); stroke: rgb(38, 50, 56); stroke-miterlimit: 10; transform-origin: 152.75px 409.75px;" id="elkvy4hwkv4u" class="animable"></circle><circle cx="152.75" cy="409.75" r="55.25" style="fill: rgb(255, 255, 255); stroke: rgb(38, 50, 56); stroke-miterlimit: 10; transform-origin: 152.75px 409.75px;" id="elz7tqu60fqu" class="animable"></circle><circle cx="152.75" cy="409.75" r="6.75" style="fill: rgb(255, 255, 255); stroke: rgb(38, 50, 56); stroke-miterlimit: 10; transform-origin: 152.75px 409.75px;" id="elucc1n2wv72c" class="animable"></circle><path d="M285.53,378.54h0a1.9,1.9,0,0,1,1.89,1.81L289,415.81a3.46,3.46,0,0,1-3.46,3.61h0a3.46,3.46,0,0,1-3.46-3.61l1.57-35.46A1.89,1.89,0,0,1,285.53,378.54Z" style="fill: rgb(255, 255, 255); stroke: rgb(38, 50, 56); stroke-miterlimit: 10; transform-origin: 285.54px 398.98px;" id="el7husoal1il" class="animable"></path><g id="elvzefmxhfu3"><rect x="275.58" y="375.65" width="21.35" height="4.7" style="fill: rgb(38, 50, 56); stroke: rgb(38, 50, 56); stroke-miterlimit: 10; transform-origin: 286.255px 378px; transform: rotate(180deg);" class="animable"></rect></g><circle cx="286.25" cy="416.25" r="16.75" style="fill: rgb(255, 255, 255); stroke: rgb(38, 50, 56); stroke-miterlimit: 10; transform-origin: 286.25px 416.25px;" id="el7tc50jbg90f" class="animable"></circle><path d="M287.81,420.41,172.07,339.18a2.5,2.5,0,0,1,2.88-4.09l109.74,77,25.88-106.68a2.5,2.5,0,1,1,4.86,1.18Z" style="fill: rgb(255, 255, 255); stroke: rgb(38, 50, 56); stroke-miterlimit: 10; transform-origin: 243.255px 361.955px;" id="el0eusvr8bbi2h" class="animable"></path><path d="M287.5,419a2.5,2.5,0,0,1-.2-5l82.25-6.75a2.5,2.5,0,1,1,.4,5L287.7,419Z" style="fill: rgb(255, 255, 255); stroke: rgb(38, 50, 56); stroke-miterlimit: 10; transform-origin: 328.584px 413.122px;" id="ele07mhl7k5n" class="animable"></path><path d="M369.75,412.25a2.49,2.49,0,0,1-2-1l-57.91-77.75a9.21,9.21,0,0,0-7-3.71L177.9,325a2.5,2.5,0,0,1,.2-5l126.58,4.85a10.71,10.71,0,0,1,8.16,4.3l58.91,79.11a2.48,2.48,0,0,1-.51,3.49A2.45,2.45,0,0,1,369.75,412.25Z" style="fill: rgb(255, 255, 255); stroke: rgb(38, 50, 56); stroke-miterlimit: 10; transform-origin: 273.874px 366.124px;" id="el7fd7a8nv1a" class="animable"></path><path d="M152.85,411.77a2.57,2.57,0,0,1-.67-.09,2.49,2.49,0,0,1-1.74-3.07l29.8-107.67-17.45-4.8a2.59,2.59,0,0,1-1.91-3,2.48,2.48,0,0,1,3.1-1.88l18.42,5.06a4.15,4.15,0,0,1,2.89,5.1l-30,108.49A2.5,2.5,0,0,1,152.85,411.77Z" style="fill: rgb(255, 255, 255); stroke: rgb(38, 50, 56); stroke-miterlimit: 10; transform-origin: 167.894px 351.469px;" id="el14taxlp05n9" class="animable"></path><path d="M166.3,292.53a5.39,5.39,0,1,0-5.39,5.39A5.39,5.39,0,0,0,166.3,292.53Z" style="fill: rgb(38, 50, 56); stroke: rgb(38, 50, 56); stroke-miterlimit: 10; transform-origin: 160.91px 292.53px;" id="el0b6edyva20fs" class="animable"></path><path d="M186.82,300.67a5.39,5.39,0,1,0-5.39,5.39A5.39,5.39,0,0,0,186.82,300.67Z" style="fill: rgb(255, 255, 255); stroke: rgb(38, 50, 56); stroke-miterlimit: 10; transform-origin: 181.43px 300.67px;" id="elhydkpwmw5pg" class="animable"></path><path d="M309.51,297.31S285.5,300,284,304s2,5,4,5.5,27.67,1.17,39,0c4-.41,9.5-11,9.5-16.5s-8.5-1-13,.5S309.51,297.31,309.51,297.31Z" style="fill: rgb(38, 50, 56); stroke: rgb(38, 50, 56); stroke-miterlimit: 10; transform-origin: 310.068px 300.246px;" id="elirjy2k1rp2" class="animable"></path><circle cx="285.89" cy="416.34" r="6.75" style="fill: rgb(255, 255, 255); stroke: rgb(38, 50, 56); stroke-miterlimit: 10; transform-origin: 285.89px 416.34px;" id="elprmm78zrqkj" class="animable"></circle><path d="M285.53,454.88h0a1.89,1.89,0,0,1-1.89-1.81l-1.57-35.46a3.46,3.46,0,0,1,3.46-3.61h0a3.46,3.46,0,0,1,3.46,3.61l-1.57,35.46A1.9,1.9,0,0,1,285.53,454.88Z" style="fill: rgb(255, 255, 255); stroke: rgb(38, 50, 56); stroke-miterlimit: 10; transform-origin: 285.53px 434.44px;" id="elz9qhrkd2cx8" class="animable"></path><rect x="274.13" y="453.07" width="21.35" height="4.7" style="fill: rgb(38, 50, 56); stroke: rgb(38, 50, 56); stroke-miterlimit: 10; transform-origin: 284.805px 455.42px;" id="elm2go93jawp9" class="animable"></rect><path d="M299.68,284s-4,5-6.52,6.83a7.73,7.73,0,0,0-3.41,6.06c0,1.86-.63,9.94-.63,10.4s.47,1.09,2,1.24a6.47,6.47,0,0,0,2.95-.46s3.42.93,5,1.24,2.95-.47,4.35-1.86,5-6.37,8.08-10.41,3.72-10.25,3.72-10.25l-15.06-4.35Z" style="fill: rgb(255, 255, 255); stroke: rgb(38, 50, 56); stroke-miterlimit: 10; transform-origin: 302.17px 295.909px;" id="elwsx6wdem4tg" class="animable"></path><path d="M294.09,308.07s.31-4.82.63-7.3,2.64-6.83,2.64-6.83" style="fill: none; stroke: rgb(38, 50, 56); stroke-miterlimit: 10; transform-origin: 295.725px 301.005px;" id="elxja7uc9bcqr" class="animable"></path><path d="M296.73,308.69s1.71-6.83,2.18-9.16a15.6,15.6,0,0,1,2.17-4.82" style="fill: none; stroke: rgb(38, 50, 56); stroke-miterlimit: 10; transform-origin: 298.905px 301.7px;" id="el0l4pw1ubf2bj" class="animable"></path><path d="M299.06,309.31s2.8-4.66,3.73-6.83,2.8-6.37,2.8-6.37" style="fill: none; stroke: rgb(38, 50, 56); stroke-miterlimit: 10; transform-origin: 302.325px 302.71px;" id="el74cjoj3xokj" class="animable"></path><path d="M286.33,196.33s14.34,52.34,14,66A205.29,205.29,0,0,1,298.67,285s2.57-.07,10,2.33c8.24,2.67,11,5,11,5s7.66-11.66,8-23.66-6-39.34-13-56.67-27.34-49.33-34-54" style="fill: rgb(84, 169, 138); stroke: rgb(38, 50, 56); stroke-miterlimit: 10; transform-origin: 304.177px 225.165px;" id="elu6qpp337mu" class="animable"></path></g><g id="freepik--Floor--inject-170" class="animable animator-hidden" style="transform-origin: 250.5px 474.5px;"><line x1="13" y1="474.5" x2="488" y2="474.5" style="fill: none; stroke: rgb(38, 50, 56); stroke-miterlimit: 10; transform-origin: 250.5px 474.5px;" id="elmp390nr4f7m" class="animable"></line></g><g id="freepik--Plants--inject-170" class="animable" style="transform-origin: 247.267px 429.924px;"><path d="M23.42,431c2.5-.36,7.26-3.45,7.26-3.46s-3-2.51-3.2-2.64c-2.43-1.56-8-3.14-10.54-1.08a3.83,3.83,0,0,0-.08,5.69C18.48,431.09,21.29,431.29,23.42,431Z" style="fill: rgb(38, 50, 56); transform-origin: 23.1568px 426.975px;" id="elxvmpvhya58k" class="animable"></path><path d="M69.76,407.4c.06,0-1.11-3.75-1.21-4-1.17-2.64-5-7.05-8.19-6.71a3.83,3.83,0,0,0-3.21,4.7c.47,2.23,2.7,3.95,4.65,4.87C64.08,407.36,69.76,407.4,69.76,407.4Z" style="fill: rgb(38, 50, 56); transform-origin: 63.402px 402.036px;" id="ele085vqomrba" class="animable"></path><path d="M75.82,470.64c1.1,1.38,2.11,2.67,3,3.86h2.28c-1.15-1.47-2.48-3.13-4-4.93-.88-1-1.84-2.15-2.83-3.27a36.41,36.41,0,0,0,2.52-3.47c2,.68,6.19.5,6.72.47.16,1.34.3,2.64.41,3.87.26,2.78.42,5.25.52,7.33h1.85c-.15-2.12-.37-4.65-.7-7.5-.15-1.36-.34-2.81-.55-4.29.52-.16,4.78-1.49,6.34-2.88s2.88-3.25,2.72-5.24a3.36,3.36,0,0,0-3.86-3.18c-2.8.5-4.92,5.16-5.26,7.68,0,.14-.06,1.78-.06,2.81-.09-.61-.17-1.2-.27-1.82-.19-1.23-.41-2.46-.65-3.78-.13-.63-.27-1.27-.41-1.92s-.34-1.3-.5-2c-.42-1.53-.92-3.05-1.46-4.57,1.08-.17,4.91-.82,6.5-1.85s3.34-2.78,3.49-4.78a3.36,3.36,0,0,0-3.34-3.72c-2.84.07-5.65,4.36-6.36,6.79,0,.15-.36,2-.52,2.95-.32-.91-.65-1.83-1-2.74-1-2.64-2.2-5.27-3.33-7.9-.35-.81-.68-1.62-1-2.43.38-.05,5-.72,6.74-1.88,1.59-1,3.33-2.78,3.48-4.77a3.36,3.36,0,0,0-3.34-3.73c-2.84.08-5.64,4.36-6.36,6.79,0,.18-.5,2.78-.58,3.45-.75-1.78-1.48-3.56-2.12-5.34a58,58,0,0,1-2.18-7.37c.18,0,4.94-.7,6.78-1.88,1.59-1,3.33-2.78,3.48-4.78a3.35,3.35,0,0,0-3.34-3.72c-2.84.07-5.64,4.35-6.36,6.79,0,.16-.39,2.13-.53,3.08h-.16a42.34,42.34,0,0,1-.82-7.67c0-1.42,0-2.78.06-4.1.9,0,5-.25,6.78-1.13s3.62-2.39,4-4.36a3.36,3.36,0,0,0-2.91-4.07c-2.83-.24-6.09,3.71-7.07,6,0,.13-.45,1.48-.72,2.47,0-.59.07-1.21.12-1.78.17-2.14.47-4.09.75-5.81.16-1,.33-1.86.5-2.69.86-.49,4.32-2.53,5.47-4.1s2.1-3.8,1.52-5.71a3.36,3.36,0,0,0-4.45-2.28c-2.62,1.1-3.7,6.11-3.49,8.63,0,.22.7,3.6.75,3.58l0,0c-.18.79-.36,1.64-.53,2.57-.32,1.72-.66,3.66-.88,5.81a57.9,57.9,0,0,0-.41,6.95,43.92,43.92,0,0,0,.66,7.77.29.29,0,0,1,0,.09c-.39-.74-1.54-2.76-1.65-2.91-1.49-2-5.59-5.12-8.28-4.22a3.35,3.35,0,0,0-1.88,4.63c.82,1.83,3.05,2.89,4.9,3.31,2.08.48,6.62-.44,7-.52A59.31,59.31,0,0,0,73.11,429c.5,1.47,1,2.92,1.6,4.38-.35-.63-.68-1.18-.73-1.26-1.5-2-5.59-5.12-8.29-4.23a3.37,3.37,0,0,0-1.87,4.64c.82,1.83,3.05,2.88,4.89,3.31s5.76-.28,6.79-.48l.66,1.67c1.07,2.66,2.16,5.31,3.14,7.94.35.93.66,1.86,1,2.78-.32-.55-.59-1-.64-1.08-1.5-2.05-5.59-5.12-8.29-4.23A3.36,3.36,0,0,0,69.47,447c.82,1.83,3,2.88,4.9,3.31s5.38-.22,6.6-.45c.29,1,.58,1.92.82,2.86.14.65.33,1.26.44,1.91s.25,1.29.37,1.93c.2,1.23.4,2.5.56,3.71.11.84.21,1.64.3,2.45-.33-.93-1-2.73-1.1-2.87a13,13,0,0,0-4.59-4.72,4.49,4.49,0,0,0-.4-.63,3.36,3.36,0,0,0-5-.52c-2.06,2-1.26,7-.16,9.3.07.14.94,1.52,1.5,2.38-.4-.46-.8-.9-1.22-1.37-.84-.92-1.7-1.82-2.63-2.79l-1.4-1.37c-.46-.47-1-.91-1.5-1.37-1.19-1-2.45-2-3.74-3,.81-.74,3.64-3.39,4.41-5.13s1.24-4.16.27-5.91a3.36,3.36,0,0,0-4.84-1.26c-2.33,1.63-2.31,6.75-1.56,9.17,0,.15.78,1.83,1.2,2.74-.78-.58-1.56-1.16-2.36-1.72-2.33-1.62-4.74-3.18-7.14-4.76L51,447.47c.29-.26,3.73-3.34,4.58-5.29.77-1.73,1.25-4.16.28-5.91A3.37,3.37,0,0,0,51.06,435c-2.33,1.63-2.31,6.75-1.56,9.17,0,.18,1.11,2.6,1.41,3.2-1.6-1.07-3.19-2.16-4.72-3.29a58.14,58.14,0,0,1-5.87-4.93c.13-.12,3.73-3.32,4.61-5.32.76-1.73,1.25-4.15.27-5.9a3.36,3.36,0,0,0-4.84-1.27c-2.32,1.63-2.3,6.75-1.56,9.17.05.16.86,2,1.26,2.87l-.13.09A41.82,41.82,0,0,1,35,432.85c-.82-1.16-1.54-2.31-2.21-3.45.73-.53,4.05-3,5-4.68s1.7-4,.92-5.84a3.36,3.36,0,0,0-4.67-1.79c-2.49,1.36-3,6.46-2.56,9,0,.13.45,1.48.76,2.46-.29-.52-.61-1.05-.88-1.55-1-1.89-1.86-3.68-2.58-5.27-.4-.9-.75-1.73-1.06-2.51.44-.89,2.2-4.51,2.29-6.44s-.33-4.33-1.87-5.61a3.36,3.36,0,0,0-5,.56c-1.59,2.36.28,7.13,1.85,9.12.13.17,2.57,2.62,2.59,2.57l0-.05c.29.76.6,1.56,1,2.44.69,1.6,1.48,3.42,2.47,5.33a60.56,60.56,0,0,0,3.5,6,44.07,44.07,0,0,0,4.84,6.11l.06.07c-.73-.4-2.8-1.45-3-1.51-2.38-.88-7.49-1.19-9.25,1a3.36,3.36,0,0,0,1,4.9c1.69,1.08,4.13.73,5.91.06,2-.75,5.27-4,5.53-4.28a59.49,59.49,0,0,0,6,5.24c1.21.95,2.47,1.86,3.74,2.76l-1.3-.64c-2.38-.88-7.49-1.18-9.25,1.05a3.36,3.36,0,0,0,1,4.9c1.69,1.07,4.14.72,5.91.06s4.65-3.41,5.39-4.14l1.47,1c2.37,1.63,4.74,3.24,7,4.9.8.58,1.57,1.18,2.34,1.78-.57-.29-1.06-.53-1.13-.55-2.38-.89-7.49-1.19-9.25,1a3.36,3.36,0,0,0,1,4.9c1.69,1.08,4.13.72,5.91.06s4.37-3.14,5.26-4c.77.64,1.54,1.28,2.26,1.93.48.46,1,.87,1.43,1.35l1.37,1.4c.84.93,1.71,1.87,2.51,2.79.56.64,1.08,1.26,1.6,1.88-.79-.59-2.36-1.71-2.5-1.79-2.22-1.23-7.23-2.31-9.3-.37a3.37,3.37,0,0,0,.24,5c1.51,1.32,4,1.34,5.83.95,2-.43,5.65-3,6.09-3.37C74.21,468.67,75.05,469.68,75.82,470.64Z" style="fill: rgb(38, 50, 56); transform-origin: 58.324px 429.909px;" id="elu26kifot2t" class="animable"></path><path d="M473.79,446.66c-1.64-.24-4.76-2.27-4.76-2.27s2-1.65,2.1-1.74c1.59-1,5.28-2.06,6.91-.71a2.52,2.52,0,0,1,.06,3.74A5.28,5.28,0,0,1,473.79,446.66Z" style="fill: rgb(38, 50, 56); transform-origin: 473.966px 444.038px;" id="elx0713ag1auj" class="animable"></path><path d="M443.18,430.91s.73-2.46.8-2.61c.76-1.74,3.26-4.63,5.37-4.41a2.51,2.51,0,0,1,2.11,3.09,5.25,5.25,0,0,1-3,3.19C446.91,430.88,443.19,430.91,443.18,430.91Z" style="fill: rgb(38, 50, 56); transform-origin: 447.357px 427.394px;" id="elh1p4pqfjwq6" class="animable"></path><path d="M440.12,472c-.73.9-1.39,1.75-2,2.53h-1.49c.75-1,1.62-2.06,2.61-3.23.58-.69,1.21-1.42,1.86-2.15a25.2,25.2,0,0,1-1.66-2.28,16.27,16.27,0,0,1-4.41.31c-.1.88-.19,1.73-.26,2.54-.17,1.82-.28,3.44-.35,4.81h-1.21c.1-1.39.24-3.06.46-4.93.1-.89.22-1.84.36-2.81a15.28,15.28,0,0,1-4.16-1.89,4.61,4.61,0,0,1-1.79-3.44,2.21,2.21,0,0,1,2.54-2.09c1.83.33,3.23,3.39,3.45,5,0,.1,0,1.17,0,1.85.06-.4.11-.79.18-1.2.12-.81.27-1.61.42-2.48q.13-.62.27-1.26c.08-.42.22-.85.33-1.29.28-1,.61-2,1-3a14.4,14.4,0,0,1-4.27-1.21,4.59,4.59,0,0,1-2.29-3.13,2.21,2.21,0,0,1,2.19-2.45c1.87.05,3.71,2.86,4.18,4.46,0,.1.24,1.28.34,1.93.21-.6.43-1.19.67-1.79.68-1.73,1.44-3.46,2.18-5.19.23-.53.45-1.06.67-1.59a15.39,15.39,0,0,1-4.42-1.24,4.59,4.59,0,0,1-2.29-3.13,2.2,2.2,0,0,1,2.19-2.45c1.86.05,3.71,2.86,4.18,4.46,0,.12.33,1.82.38,2.26.49-1.17,1-2.34,1.39-3.51a37.25,37.25,0,0,0,1.43-4.83,15.27,15.27,0,0,1-4.45-1.24,4.58,4.58,0,0,1-2.28-3.13,2.2,2.2,0,0,1,2.19-2.45c1.86.05,3.7,2.86,4.17,4.46,0,.1.26,1.4.35,2h.11a29,29,0,0,0,.54-5c0-.93,0-1.83,0-2.69a15,15,0,0,1-4.46-.74,4.61,4.61,0,0,1-2.61-2.87,2.2,2.2,0,0,1,1.91-2.67c1.85-.15,4,2.44,4.64,4,0,.09.29,1,.47,1.63,0-.4,0-.8-.08-1.17-.11-1.41-.31-2.69-.49-3.82-.11-.64-.22-1.22-.33-1.76a14.86,14.86,0,0,1-3.59-2.7,4.62,4.62,0,0,1-1-3.75,2.21,2.21,0,0,1,2.92-1.49c1.72.72,2.43,4,2.29,5.67,0,.14-.46,2.36-.49,2.34l0,0c.11.52.23,1.08.35,1.69.21,1.13.43,2.41.58,3.82a40.21,40.21,0,0,1,.26,4.56,29.34,29.34,0,0,1-.43,5.1.14.14,0,0,1,0,.06c.26-.49,1-1.81,1.09-1.91,1-1.34,3.67-3.36,5.44-2.77a2.21,2.21,0,0,1,1.23,3,4.63,4.63,0,0,1-3.22,2.17,15.16,15.16,0,0,1-4.58-.34,39.61,39.61,0,0,1-1.37,5c-.32,1-.68,1.92-1.05,2.87l.48-.82c1-1.35,3.68-3.36,5.45-2.78a2.22,2.22,0,0,1,1.23,3.05,4.63,4.63,0,0,1-3.22,2.17,14.43,14.43,0,0,1-4.45-.32l-.44,1.1c-.7,1.75-1.41,3.49-2.06,5.21-.23.61-.43,1.22-.63,1.83.2-.37.38-.67.41-.71,1-1.35,3.68-3.37,5.45-2.78a2.21,2.21,0,0,1,1.23,3,4.61,4.61,0,0,1-3.22,2.18,14.18,14.18,0,0,1-4.33-.29c-.19.62-.38,1.25-.54,1.87-.1.43-.22.83-.29,1.26s-.17.85-.25,1.26c-.12.81-.26,1.65-.36,2.44-.08.55-.14,1.08-.2,1.61.22-.61.67-1.8.72-1.89a8.54,8.54,0,0,1,3-3.1,2.57,2.57,0,0,1,.26-.41,2.2,2.2,0,0,1,3.26-.34c1.35,1.29.83,4.61.1,6.11,0,.08-.61,1-1,1.56.27-.3.52-.6.8-.9.55-.61,1.12-1.2,1.73-1.84l.92-.9c.3-.3.65-.59,1-.89.78-.68,1.6-1.34,2.45-2a14.44,14.44,0,0,1-2.89-3.36,4.63,4.63,0,0,1-.18-3.88,2.2,2.2,0,0,1,3.17-.83c1.53,1.07,1.52,4.43,1,6,0,.1-.51,1.2-.79,1.8.51-.38,1-.76,1.55-1.13,1.53-1.06,3.11-2.09,4.68-3.12l1.44-1a15.56,15.56,0,0,1-3-3.47,4.57,4.57,0,0,1-.17-3.87,2.19,2.19,0,0,1,3.17-.83c1.53,1.06,1.52,4.43,1,6,0,.12-.73,1.7-.93,2.1,1-.71,2.09-1.42,3.09-2.16a38.43,38.43,0,0,0,3.86-3.24,15.73,15.73,0,0,1-3-3.49,4.59,4.59,0,0,1-.17-3.88,2.2,2.2,0,0,1,3.17-.83c1.53,1.07,1.52,4.43,1,6,0,.11-.56,1.32-.83,1.88l.09.07a28.85,28.85,0,0,0,3.23-3.91c.54-.76,1-1.52,1.45-2.27a14.8,14.8,0,0,1-3.31-3.07,4.62,4.62,0,0,1-.6-3.83,2.21,2.21,0,0,1,3.07-1.18c1.63.9,2,4.24,1.67,5.87,0,.09-.29,1-.49,1.62.19-.34.4-.69.58-1,.67-1.23,1.22-2.41,1.69-3.45.26-.6.49-1.14.7-1.65a14.75,14.75,0,0,1-1.51-4.23,4.64,4.64,0,0,1,1.23-3.68,2.21,2.21,0,0,1,3.27.37c1,1.55-.19,4.68-1.22,6-.09.12-1.69,1.72-1.7,1.69l0,0c-.19.49-.4,1-.64,1.6-.45,1.05-1,2.24-1.62,3.5a39.92,39.92,0,0,1-2.3,3.95,28.86,28.86,0,0,1-3.17,4l-.05,0c.48-.26,1.85-.95,2-1,1.56-.58,4.91-.78,6.07.69a2.21,2.21,0,0,1-.66,3.22,4.61,4.61,0,0,1-3.88,0,15.37,15.37,0,0,1-3.63-2.81,38.3,38.3,0,0,1-3.91,3.44c-.8.63-1.63,1.23-2.46,1.82.42-.22.8-.4.85-.42,1.56-.58,4.92-.78,6.07.68a2.21,2.21,0,0,1-.65,3.22,4.61,4.61,0,0,1-3.88,0,14.47,14.47,0,0,1-3.54-2.72l-1,.67c-1.55,1.07-3.11,2.13-4.6,3.22q-.78.57-1.53,1.17l.74-.37c1.56-.57,4.92-.78,6.07.69a2.21,2.21,0,0,1-.65,3.22,4.65,4.65,0,0,1-3.88,0,14.42,14.42,0,0,1-3.46-2.64c-.5.42-1,.84-1.48,1.27-.32.3-.64.57-.94.89l-.9.92c-.55.6-1.12,1.23-1.65,1.83-.36.42-.71.82-1,1.23.52-.39,1.55-1.12,1.64-1.17,1.46-.81,4.75-1.52,6.11-.25a2.21,2.21,0,0,1-.16,3.28,4.61,4.61,0,0,1-3.83.63,15.3,15.3,0,0,1-4-2.21C441.17,470.67,440.62,471.33,440.12,472Z" style="fill: rgb(38, 50, 56); transform-origin: 451.554px 445.288px;" id="el6ihm3vxcp4j" class="animable"></path></g><defs>     <filter id="active" height="200%">         <feMorphology in="SourceAlpha" result="DILATED" operator="dilate" radius="2"></feMorphology>                <feFlood flood-color="#32DFEC" flood-opacity="1" result="PINK"></feFlood>        <feComposite in="PINK" in2="DILATED" operator="in" result="OUTLINE"></feComposite>        <feMerge>            <feMergeNode in="OUTLINE"></feMergeNode>            <feMergeNode in="SourceGraphic"></feMergeNode>        </feMerge>    </filter>    <filter id="hover" height="200%">        <feMorphology in="SourceAlpha" result="DILATED" operator="dilate" radius="2"></feMorphology>                <feFlood flood-color="#ff0000" flood-opacity="0.5" result="PINK"></feFlood>        <feComposite in="PINK" in2="DILATED" operator="in" result="OUTLINE"></feComposite>        <feMerge>            <feMergeNode in="OUTLINE"></feMergeNode>            <feMergeNode in="SourceGraphic"></feMergeNode>        </feMerge>            <feColorMatrix type="matrix" values="0   0   0   0   0                0   1   0   0   0                0   0   0   0   0                0   0   0   1   0 "></feColorMatrix>    </filter></defs></svg>