<?xml version="1.0" standalone="no"?><!DOCTYPE svg PUBLIC "-//W3C//DTD SVG 1.1//EN" "http://www.w3.org/Graphics/SVG/1.1/DTD/svg11.dtd"><svg t="1644494396362" class="icon" viewBox="0 0 1024 1024" version="1.1" xmlns="http://www.w3.org/2000/svg" p-id="4162" xmlns:xlink="http://www.w3.org/1999/xlink" width="128" height="128"><defs><style type="text/css"></style></defs><path d="M256 74.666667a53.333333 53.333333 0 1 0 0 106.666666h512a53.333333 53.333333 0 1 0 0-106.666666H256zM549.717333 260.949333a53.333333 53.333333 0 0 0-75.434666 0l-256 256a53.333333 53.333333 0 0 0 75.434666 75.434667l165.12-165.12V896a53.333333 53.333333 0 1 0 106.666667 0V427.605333l164.778667 164.778667a53.333333 53.333333 0 0 0 75.434666-75.434667l-256-256z" p-id="4163"></path></svg>